<svg width="280" height="280" viewBox="0 0 280 280" fill="none" xmlns="http://www.w3.org/2000/svg">
<g filter="url(#filter0_d_36_49)">
<circle cx="140" cy="136" r="136" fill="black"/>
<path fill-rule="evenodd" clip-rule="evenodd" d="M140.007 41C86.4781 41 45.0136 80.1737 45.0136 133.137L45.0076 133.143C44.8409 145.966 47.4109 158.676 52.5463 170.427C57.6816 182.177 65.2641 192.698 74.788 201.286C75.5448 201.969 76.1566 202.797 76.587 203.721C77.0174 204.645 77.2576 205.646 77.2934 206.665L77.8515 223.607C77.8872 224.856 78.2299 226.077 78.8493 227.162C79.4687 228.247 80.3459 229.163 81.4033 229.829C82.4607 230.495 83.6658 230.89 84.9123 230.98C86.1587 231.07 87.4081 230.852 88.5501 230.344L107.478 222.028C109.069 221.308 110.862 221.165 112.548 221.624C121.174 224.004 130.418 225.275 140.007 225.275C193.535 225.275 235 186.071 235 133.137C235 80.1737 193.535 41 140.007 41ZM184.218 101.857V94H116.417V101.857L139.528 129.952H98.6122V94H88V179H98.6122V139.357H123.374C122.116 140.548 120.977 142.175 119.955 144.238C118.933 146.302 117.911 148.96 116.889 152.214L108.635 179H119.719L127.383 152.929C128.484 149.278 129.624 146.46 130.803 144.476C132.06 142.413 133.751 140.944 135.873 140.071C138.074 139.198 141.101 138.762 144.952 138.762V179H155.683V138.762C159.534 138.762 162.522 139.119 164.644 139.833C166.766 140.548 168.496 141.937 169.832 144C171.169 145.984 172.426 148.96 173.605 152.929L181.506 179H192L184.1 152.69C182.763 148.246 181.23 144.437 179.501 141.262C177.85 138.087 175.531 135.587 172.544 133.762C169.557 131.937 165.469 130.865 160.281 130.548L184.218 101.857ZM129.27 103.643H171.365L150.376 129.357L129.27 103.643Z" fill="white"/>
</g>
<defs>
<filter id="filter0_d_36_49" x="0" y="0" width="280" height="280" filterUnits="userSpaceOnUse" color-interpolation-filters="sRGB">
<feFlood flood-opacity="0" result="BackgroundImageFix"/>
<feColorMatrix in="SourceAlpha" type="matrix" values="0 0 0 0 0 0 0 0 0 0 0 0 0 0 0 0 0 0 127 0" result="hardAlpha"/>
<feOffset dy="4"/>
<feGaussianBlur stdDeviation="2"/>
<feComposite in2="hardAlpha" operator="out"/>
<feColorMatrix type="matrix" values="0 0 0 0 0 0 0 0 0 0 0 0 0 0 0 0 0 0 0.25 0"/>
<feBlend mode="normal" in2="BackgroundImageFix" result="effect1_dropShadow_36_49"/>
<feBlend mode="normal" in="SourceGraphic" in2="effect1_dropShadow_36_49" result="shape"/>
</filter>
</defs>
</svg>
