<svg width="280" height="280" viewBox="0 0 280 280" fill="none" xmlns="http://www.w3.org/2000/svg">
<path d="M140 276C215.111 276 276 215.111 276 140C276 64.8893 215.111 4 140 4C64.8893 4 4 64.8893 4 140C4 215.111 64.8893 276 140 276Z" fill="#05227C"/>
<path fill-rule="evenodd" clip-rule="evenodd" d="M47.3 122.2C37.5 132 37.5 147.8 47.3 157.6L123.3 233.6C133.1 243.4 148.9 243.4 158.7 233.6L234.7 157.6C244.5 147.8 244.5 132 234.7 122.2L158.7 46.2C148.9 36.4 133.1 36.4 123.3 46.2L47.3 122.2ZM170 168.8C177.4 160.6 181 151 181 140C181 129 177.3 119.4 170 111.2C162.6 103 152.6 98.9 140 98.9C127.3 98.9 117.3 103 110 111.2C102.6 119.4 99 129 99 140C99 151 102.7 160.6 110 168.8C117.4 177 127.4 181.1 140 181.1C152.7 181.1 162.7 177 170 168.8Z" fill="white"/>
<path d="M140 278C216.215 278 278 216.215 278 140C278 63.7847 216.215 2 140 2C63.7847 2 2 63.7847 2 140C2 216.215 63.7847 278 140 278Z" stroke="white" stroke-width="4"/>
</svg>
