<svg width="314" height="314" viewBox="0 0 314 314" fill="none" xmlns="http://www.w3.org/2000/svg">
<rect x="29" y="29" width="256" height="256" rx="8" fill="#191919"/>
<g filter="url(#filter0_d_3521_18)">
<circle cx="157" cy="157" r="67" fill="#1B1B1B"/>
</g>
<g filter="url(#filter1_d_3521_18)">
<path d="M126.892 191H110.476L103.564 177.656L98.8603 167.096H97.9963L93.1963 177.656L86.0923 191H71.0203L89.8363 156.344L72.2683 123.992H88.6843L94.1562 134.648L99.0523 145.4H99.8203L104.812 134.648L110.572 123.992H125.644L108.076 156.536L126.892 191ZM149.319 191V167.288L128.103 123.992H144.135L151.239 139.544L156.423 152.696H157.191L162.375 139.544L169.479 123.992H184.935L163.719 167.288V191H149.319ZM238.177 191H189.889V178.424L221.089 135.8H190.849V123.992H237.217V136.568L206.017 179.192H238.177V191Z" fill="#D3D3D3"/>
</g>
<defs>
<filter id="filter0_d_3521_18" x="0" y="0" width="314" height="314" filterUnits="userSpaceOnUse" color-interpolation-filters="sRGB">
<feFlood flood-opacity="0" result="BackgroundImageFix"/>
<feColorMatrix in="SourceAlpha" type="matrix" values="0 0 0 0 0 0 0 0 0 0 0 0 0 0 0 0 0 0 127 0" result="hardAlpha"/>
<feOffset/>
<feGaussianBlur stdDeviation="45"/>
<feComposite in2="hardAlpha" operator="out"/>
<feColorMatrix type="matrix" values="0 0 0 0 0.408235 0 0 0 0 0.176471 0 0 0 0 0.94902 0 0 0 1 0"/>
<feBlend mode="normal" in2="BackgroundImageFix" result="effect1_dropShadow_3521_18"/>
<feBlend mode="normal" in="SourceGraphic" in2="effect1_dropShadow_3521_18" result="shape"/>
</filter>
<filter id="filter1_d_3521_18" x="52.02" y="108.992" width="205.157" height="105.008" filterUnits="userSpaceOnUse" color-interpolation-filters="sRGB">
<feFlood flood-opacity="0" result="BackgroundImageFix"/>
<feColorMatrix in="SourceAlpha" type="matrix" values="0 0 0 0 0 0 0 0 0 0 0 0 0 0 0 0 0 0 127 0" result="hardAlpha"/>
<feOffset dy="4"/>
<feGaussianBlur stdDeviation="9.5"/>
<feComposite in2="hardAlpha" operator="out"/>
<feColorMatrix type="matrix" values="0 0 0 0 0 0 0 0 0 0 0 0 0 0 0 0 0 0 0.25 0"/>
<feBlend mode="normal" in2="BackgroundImageFix" result="effect1_dropShadow_3521_18"/>
<feBlend mode="normal" in="SourceGraphic" in2="effect1_dropShadow_3521_18" result="shape"/>
</filter>
</defs>
</svg>
