<svg width="314" height="314" viewBox="0 0 314 314" fill="none" xmlns="http://www.w3.org/2000/svg">
<rect x="29" y="29" width="256" height="256" rx="8" fill="#191919"/>
<g filter="url(#filter0_d_3521_18)">
<circle cx="157" cy="157" r="67" fill="#1B1B1B"/>
</g>
<g filter="url(#filter1_d_3521_18)">
<path d="M111.916 191L107.692 174.872H89.3563L85.2283 191H70.6363L88.7803 123.992H109.132L127.276 191H111.916ZM98.9563 137.912H98.1883L91.6603 163.256H105.484L98.9563 137.912ZM135.111 123.992H158.631C165.223 123.992 170.247 125.592 173.703 128.792C177.223 131.992 178.983 136.344 178.983 141.848C178.983 145.688 178.023 148.76 176.103 151.064C174.247 153.304 171.559 154.936 168.039 155.96V156.536C172.199 157.56 175.399 159.352 177.639 161.912C179.943 164.472 181.095 168.024 181.095 172.568C181.095 178.2 179.303 182.68 175.719 186.008C172.199 189.336 167.239 191 160.839 191H135.111V123.992ZM156.423 180.92C159.879 180.92 162.407 180.344 164.007 179.192C165.607 178.04 166.407 175.928 166.407 172.856V170.072C166.407 167 165.607 164.888 164.007 163.736C162.407 162.584 159.879 162.008 156.423 162.008H149.127V180.92H156.423ZM154.599 152.408C157.991 152.408 160.455 151.864 161.991 150.776C163.527 149.624 164.295 147.576 164.295 144.632V141.752C164.295 138.808 163.527 136.792 161.991 135.704C160.455 134.616 157.991 134.072 154.599 134.072H149.127V152.408H154.599ZM215.617 192.152C206.657 192.152 200.001 189.144 195.649 183.128C191.361 177.048 189.217 168.504 189.217 157.496C189.217 146.488 191.361 137.976 195.649 131.96C200.001 125.88 206.657 122.84 215.617 122.84C219.073 122.84 222.113 123.32 224.737 124.28C227.425 125.176 229.729 126.456 231.649 128.12C233.569 129.784 235.137 131.8 236.353 134.168C237.633 136.536 238.625 139.192 239.329 142.136L225.889 145.4C225.505 143.8 225.057 142.328 224.545 140.984C224.033 139.64 223.361 138.488 222.529 137.528C221.761 136.568 220.769 135.832 219.553 135.32C218.401 134.744 216.993 134.456 215.329 134.456C211.425 134.456 208.641 135.992 206.977 139.064C205.377 142.072 204.577 146.264 204.577 151.64V163.352C204.577 168.728 205.377 172.952 206.977 176.024C208.641 179.032 211.425 180.536 215.329 180.536C218.657 180.536 221.057 179.512 222.529 177.464C224.065 175.416 225.185 172.792 225.889 169.592L239.329 172.856C238.625 175.8 237.633 178.456 236.353 180.824C235.137 183.192 233.569 185.24 231.649 186.968C229.729 188.632 227.425 189.912 224.737 190.808C222.113 191.704 219.073 192.152 215.617 192.152Z" fill="#D3D3D3"/>
</g>
<defs>
<filter id="filter0_d_3521_18" x="0" y="0" width="314" height="314" filterUnits="userSpaceOnUse" color-interpolation-filters="sRGB">
<feFlood flood-opacity="0" result="BackgroundImageFix"/>
<feColorMatrix in="SourceAlpha" type="matrix" values="0 0 0 0 0 0 0 0 0 0 0 0 0 0 0 0 0 0 127 0" result="hardAlpha"/>
<feOffset/>
<feGaussianBlur stdDeviation="45"/>
<feComposite in2="hardAlpha" operator="out"/>
<feColorMatrix type="matrix" values="0 0 0 0 0.215098 0 0 0 0 0.94902 0 0 0 0 0.176471 0 0 0 1 0"/>
<feBlend mode="normal" in2="BackgroundImageFix" result="effect1_dropShadow_3521_18"/>
<feBlend mode="normal" in="SourceGraphic" in2="effect1_dropShadow_3521_18" result="shape"/>
</filter>
<filter id="filter1_d_3521_18" x="51.6362" y="107.84" width="206.693" height="107.312" filterUnits="userSpaceOnUse" color-interpolation-filters="sRGB">
<feFlood flood-opacity="0" result="BackgroundImageFix"/>
<feColorMatrix in="SourceAlpha" type="matrix" values="0 0 0 0 0 0 0 0 0 0 0 0 0 0 0 0 0 0 127 0" result="hardAlpha"/>
<feOffset dy="4"/>
<feGaussianBlur stdDeviation="9.5"/>
<feComposite in2="hardAlpha" operator="out"/>
<feColorMatrix type="matrix" values="0 0 0 0 0 0 0 0 0 0 0 0 0 0 0 0 0 0 0.25 0"/>
<feBlend mode="normal" in2="BackgroundImageFix" result="effect1_dropShadow_3521_18"/>
<feBlend mode="normal" in="SourceGraphic" in2="effect1_dropShadow_3521_18" result="shape"/>
</filter>
</defs>
</svg>
